PathFileType	4	(X/Y/Z)	C:\Users\WrightLab\Desktop\Jo\P1.2Trial6.trc
DataRate	CameraRate	NumFrames	NumMarkers	Units	OrigDataRate	OrigDataStartFrame	OrigNumFrames
100.00	100.00	       20	19	mm	100.00	68	       542
Frame#	Time	Headset_Front			Headset_Back			Headset_Left			Headset_Right			Left_Shoulder			Right_Shoulder			Sternum			C7			Left Elbow			Right Elbow			Left Wrist			Right Wrist			Left ASIS			Right ASIS			S2			Left Knee			Right Knee			Left Ankle			Right Ankle			
		X1	Y1	Z1	X2	Y2	Z2	X3	Y3	Z3	X4	Y4	Z4	X5	Y5	Z5	X6	Y6	Z6	X7	Y7	Z7	X8	Y8	Z8	X9	Y9	Z9	X10	Y10	Z10	X11	Y11	Z11	X12	Y12	Z12	X13	Y13	Z13	X14	Y14	Z14	X15	Y15	Z15	X16	Y16	Z16	X17	Y17	Z17	X18	Y18	Z18	X19	Y19	Z19	

68	0.670	-654.81238	1380.36243	-1146.06885	-706.37860	1199.47290	-1285.90503				-579.27307	1344.94519	-1020.31140	-299.45471	1210.04529	-1176.77368				-531.19403	1131.59656	-1125.59277				-219.78120	926.91425	-1233.09863				-195.54921	715.41095	-1114.69751				-396.96478	823.14435	-1117.49902	-659.22357	809.53253	-1216.76062	-431.70767	886.02582	-1439.17627	-326.45175	379.10736	-1158.70984	-681.88342	405.07379	-1215.82422	-173.37608	157.95703	-1440.50891	-686.41150	63.68540	-1210.82605	
69	0.680	-660.32104	1382.07959	-1139.11169							-586.22327	1345.82458	-1012.80646	-305.07211	1212.02368	-1172.02673				-537.43756	1133.64819	-1119.20581				-225.36642	927.79083	-1228.40515				-203.64284	716.43494	-1105.29846				-403.84735	824.82526	-1111.44226	-666.33722	812.45319	-1205.71533	-438.12143	887.23236	-1431.93152	-333.47955	382.01083	-1135.13354	-685.81903	404.11520	-1213.20874	-185.82379	161.17432	-1427.98706	-687.49768	63.05235	-1208.74146	
70	0.690	-666.15387	1382.85315	-1132.14453							-590.40076	1347.35657	-1006.19733	-310.53162	1213.17407	-1165.75220				-541.78778	1134.65747	-1112.21741				-233.21930	928.05933	-1218.80139				-212.90776	717.42694	-1098.49927	-838.56464	702.34222	-1301.55688	-408.21722	826.30487	-1105.87329	-671.92212	812.74933	-1201.65869	-444.33170	888.82697	-1425.75037	-344.26944	382.59464	-1124.04431	-690.31836	402.85321	-1209.54700	-197.40373	164.51299	-1417.07422	-687.99097	60.51321	-1208.91016	
71	0.700	-671.24969	1383.63000	-1125.14368	-725.40857	1204.13477	-1260.43616				-596.57953	1347.61292	-999.08643	-316.47919	1214.24597	-1159.04932				-547.45447	1135.71301	-1105.43652				-238.23427	929.96362	-1213.44653				-221.66385	718.65814	-1089.87988	-846.57874	703.36475	-1285.24158	-414.26199	827.09198	-1098.69373	-679.02307	813.75073	-1193.13000	-450.36273	890.57593	-1419.76428				-692.14423	401.02991	-1209.65039	-210.97391	165.04810	-1400.24390	-688.31805	59.38299	-1210.03088	
72	0.710	-676.05927	1384.72925	-1118.25427	-730.74445	1206.47913	-1254.93628				-601.83948	1348.88892	-992.21460	-321.41122	1215.67651	-1153.98059				-551.73895	1136.43127	-1099.35815				-245.60252	930.57825	-1205.43542				-229.37428	720.65820	-1082.59143	-854.26526	706.35651	-1271.78296	-418.14539	828.51752	-1091.05322	-684.20264	816.07690	-1185.01855	-456.09055	892.07758	-1413.35779	-364.66663	391.14212	-1092.57935	-695.31982	401.05682	-1206.68494	-224.40645	166.41443	-1385.40369	-689.29395	58.70634	-1207.66724	
73	0.720	-682.97961	1386.10254	-1111.25073							-606.96820	1349.40198	-985.73920	-326.64389	1217.45593	-1149.78503				-555.82886	1137.62415	-1092.31274				-250.11423	931.38544	-1201.22461				-238.82965	720.90002	-1073.16418	-862.46503	707.23535	-1254.37280	-425.54813	828.58130	-1088.22070	-689.54590	816.77032	-1179.80261	-461.59445	893.61499	-1407.60022	-372.67712	390.86499	-1084.94543	-698.90820	398.37860	-1207.35413	-237.37505	166.59657	-1368.90137	-689.61066	58.06802	-1208.90112	
74	0.730	-687.95953	1387.50342	-1104.16003							-611.80695	1350.12634	-977.74280	-331.65732	1218.03882	-1142.77905				-561.14923	1138.01050	-1086.16162				-256.25909	932.55328	-1193.72388				-244.86343	723.37915	-1061.87756	-869.93530	709.93237	-1239.70752	-429.42700	830.64874	-1082.90002	-695.00983	818.50806	-1170.82788	-466.81046	895.00323	-1401.21753	-382.05917	397.53946	-1060.63818	-701.11792	398.15424	-1205.58228	-251.35313	166.60378	-1351.56177	-690.04913	57.28329	-1210.64185	
75	0.740	-693.12555	1388.43945	-1096.59949							-617.49048	1351.25061	-971.68994	-336.78632	1219.74524	-1138.79626				-565.82800	1139.11365	-1079.89246				-262.65628	933.00500	-1186.92236				-252.61536	724.20892	-1055.46533	-877.81738	712.38275	-1224.08789	-434.77744	831.46124	-1078.47937	-699.07874	819.14825	-1164.47095	-471.76978	896.32843	-1394.97900	-392.22073	403.25067	-1048.39551	-704.01556	398.78708	-1200.46985	-265.39175	164.37601	-1333.03589	-690.56293	56.43951	-1212.70630	
76	0.750	-698.10803	1389.14514	-1089.07825							-621.86176	1350.64368	-964.04437	-341.68527	1220.26086	-1131.98657				-569.01874	1140.14111	-1072.51318				-267.81964	933.92371	-1181.09204				-260.68213	724.87653	-1048.36255	-885.21661	713.48749	-1206.26587	-439.63351	831.48065	-1073.23315	-704.39655	820.10132	-1160.28735	-476.57608	897.56250	-1388.59387	-400.92520	407.83749	-1034.47754	-707.13208	396.60233	-1201.21204	-279.03391	161.76848	-1316.68030	-691.17206	56.94915	-1213.36694	
77	0.760	-702.51300	1389.80676	-1081.66772							-625.26508	1351.50330	-957.46283	-346.30920	1221.52124	-1127.42883				-574.86304	1140.66248	-1066.13452				-273.24991	934.86261	-1176.07739				-265.95856	727.78021	-1039.58728	-892.48651	717.35333	-1193.69348	-444.44449	832.34460	-1065.76538	-708.19598	820.39594	-1152.75439	-481.17523	899.01910	-1382.76050	-409.82919	412.31198	-1020.84711	-709.92554	395.05539	-1200.72034	-294.08511	158.04517	-1296.49463	-692.46289	58.29571	-1210.73877	
78	0.770	-707.07062	1390.34192	-1074.16040	-479.01831	1420.86499	-1076.69006				-630.30688	1351.67639	-950.37982	-351.12973	1222.28979	-1121.48425	-763.62256	1211.80029	-1203.71863	-578.15448	1141.00159	-1059.25122				-278.59665	935.30396	-1170.30981	-834.67072	968.16559	-1269.96960	-275.24445	726.79065	-1033.13025	-901.06635	717.44916	-1172.56738	-449.56155	832.56946	-1063.54712	-712.84674	821.01776	-1143.10779	-485.71237	899.64075	-1376.02039	-419.39590	415.45258	-1009.51154	-711.35071	395.13803	-1200.39307	-308.93777	153.85034	-1278.49670	-692.79114	58.00483	-1212.13733	
79	0.780	-711.71826	1391.00513	-1066.63367	-483.75168	1422.31238	-1072.96729				-634.51160	1351.60803	-942.96472	-356.29294	1223.60645	-1117.67590	-768.46338	1213.78711	-1198.73975	-581.99725	1141.67493	-1052.94177				-283.86191	936.01385	-1163.91382	-841.79901	968.81348	-1259.12549	-281.22491	727.85626	-1027.22168	-908.48975	720.28448	-1158.15784	-453.21878	834.44446	-1055.64136	-716.69312	820.43695	-1141.04028	-489.87192	900.81842	-1368.96582	-428.05054	419.81390	-997.02167	-713.33429	395.98294	-1194.92102	-323.34570	148.84279	-1259.90186	-692.94586	57.92463	-1212.81470	
80	0.790	-715.92419	1391.60144	-1058.99390							-637.89136	1351.57227	-935.49640	-360.49072	1223.91357	-1110.19934	-772.91827	1214.43030	-1191.58289	-586.59686	1141.64954	-1046.27661				-288.97449	936.58710	-1158.56189	-848.54639	969.42920	-1248.21204	-286.89117	729.08099	-1018.24066	-914.21143	723.00488	-1144.14319	-457.18158	835.16730	-1051.74158	-720.71124	822.29266	-1131.11975	-493.99069	902.52258	-1363.63782	-435.76443	424.96460	-981.32373	-716.02063	396.89426	-1192.06018	-339.03885	143.68541	-1240.29602	-691.65894	56.97946	-1219.59680	
81	0.800	-720.10522	1391.87463	-1050.75378				-493.33276	1421.75793	-1060.48450	-641.50842	1351.38354	-928.80725	-365.07224	1224.61316	-1105.35999	-778.02209	1213.77026	-1180.65088	-590.95691	1142.28284	-1039.78442							-854.98419	970.31573	-1238.06042	-292.79959	729.68854	-1010.88879	-921.09772	724.28278	-1127.33447	-461.49921	834.83014	-1046.66370	-723.58087	821.50879	-1124.58386	-497.91312	902.71008	-1355.33447	-446.01508	428.27789	-970.41046	-718.94165	394.25232	-1191.13940	-354.69714	137.55884	-1220.37744	-691.48273	57.59149	-1218.99463	
82	0.810	-724.50745	1392.29236	-1043.22485				-495.99484	1422.25110	-1051.77283	-645.42078	1352.05005	-922.00989	-369.44427	1225.48462	-1099.28516	-782.51886	1215.61084	-1175.67090	-594.71790	1143.49292	-1033.54553				-299.15808	938.04980	-1141.62659	-861.25238	970.09753	-1225.74609	-297.39523	731.10101	-1004.93018	-927.22137	727.29254	-1114.06604	-465.51245	836.65973	-1038.80908	-726.78204	821.50641	-1118.13916	-501.54074	903.85309	-1348.66345	-454.85123	432.62991	-959.13556	-722.16010	393.05942	-1189.60840	-370.33871	131.65567	-1199.65454	-691.19525	58.28366	-1217.91101	
83	0.820	-728.15259	1391.88538	-1035.00671				-500.22800	1422.38306	-1044.34106	-647.72540	1350.90808	-914.12384	-373.67307	1226.76294	-1094.25610	-787.40771	1214.83105	-1164.85376	-597.96246	1143.74255	-1026.38391				-303.28635	938.64862	-1136.46045	-867.13086	970.60809	-1215.11658	-301.98318	731.56152	-1000.36633	-933.66620	728.63678	-1097.48853	-468.82108	836.60492	-1034.16492	-730.26263	821.71539	-1114.13257	-504.78992	904.99310	-1341.68140	-464.60474	436.78265	-947.44885	-724.60358	394.71246	-1183.54346	-386.38217	125.56322	-1177.93372	-690.26440	57.55208	-1219.48389	
84	0.830	-732.28131	1392.65002	-1027.94849				-504.06207	1422.90759	-1039.64636	-651.02991	1350.70972	-906.67566	-377.41464	1226.49292	-1088.48523	-791.46765	1215.29358	-1157.80359	-602.50708	1143.72485	-1019.94928				-307.95444	938.49115	-1129.89001	-872.59320	971.32196	-1205.15747	-306.53555	732.47656	-994.10944	-939.93585	730.73236	-1083.18030	-473.25583	836.92981	-1025.56116	-733.25238	821.87396	-1109.05615	-507.90979	905.27386	-1333.93713	-472.95673	440.81598	-937.60919	-727.49609	396.27579	-1175.34888	-401.18079	118.74556	-1156.43250	-689.10938	56.00373	-1222.80200	
85	0.840	-735.08459	1391.37305	-1019.13403	-591.16284	1488.21924	-1164.02515	-507.66449	1422.88147	-1031.93481	-654.66626	1350.83801	-898.82758	-381.70538	1227.64734	-1082.87598	-795.51868	1214.91064	-1147.55530	-605.75854	1143.34839	-1012.06067				-311.54398	939.52423	-1124.04248	-877.98456	970.37518	-1191.90430	-309.52527	732.57721	-989.63635	-945.45544	733.24640	-1069.41418	-476.71695	835.67383	-1028.02686	-736.03168	821.76605	-1100.90344	-510.62485	906.06616	-1326.05774	-483.06140	443.65668	-927.40350	-731.69440	395.25232	-1173.57642	-416.90057	113.05972	-1131.74219	-689.00806	56.09113	-1222.36841	
86	0.850	-738.76422	1391.47864	-1011.40997	-595.63348	1488.33521	-1156.44885	-511.46030	1422.83215	-1024.20447	-657.17487	1350.17407	-890.99420	-385.21118	1227.58240	-1076.70544	-799.75317	1215.03882	-1139.47205	-609.08301	1143.33533	-1005.66669				-315.55789	939.21796	-1117.75171	-882.87769	971.54388	-1183.29993	-313.31769	733.02045	-982.47137	-951.13727	734.57172	-1054.56885	-479.56894	838.82318	-1013.56366	-738.79950	822.15497	-1094.05286	-513.40997	905.94061	-1317.57336	-492.66394	447.26163	-917.61816	-735.11725	394.59595	-1172.37463	-430.16367	106.18848	-1107.96692	-689.74884	57.07769	-1219.57458	
87	0.860	-742.27216	1391.69727	-1003.40155	-600.11493	1488.44934	-1148.97852	-515.43018	1423.08984	-1018.63458	-661.06183	1350.15930	-883.19006	-388.89487	1227.50146	-1067.71753	-802.94464	1214.37256	-1130.90771	-612.99670	1143.60071	-998.24817				-320.26715	939.85199	-1112.33606	-887.52716	971.34937	-1172.10791	-316.56412	733.09784	-977.31396	-956.24127	736.52911	-1041.89758	-483.20267	837.72821	-1008.80011	-741.16266	822.19196	-1089.84998	-515.91797	906.93335	-1310.52136	-501.19830	451.01666	-906.08197	-738.34833	396.16003	-1162.81177	-443.22992	99.94662	-1081.73682	-689.53973	57.22730	-1218.66919	
